<mxfile host="app.diagrams.net" agent="Mozilla/5.0 (Windows NT 10.0; Win64; x64) AppleWebKit/537.36 (KHTML, like Gecko) Chrome/136.0.0.0 Safari/537.36" version="27.0.5">
  <diagram name="Sivu-1" id="FzUvRYhQGvO8u7jdPetY">
    <mxGraphModel dx="921" dy="1038" grid="1" gridSize="10" guides="1" tooltips="1" connect="1" arrows="1" fold="1" page="0" pageScale="1" pageWidth="850" pageHeight="1100" math="0" shadow="0">
      <root>
        <mxCell id="0" />
        <mxCell id="1" parent="0" />
        <mxCell id="TfEODBBjjmPM_egU4F7i-1" value="" style="rounded=0;whiteSpace=wrap;html=1;fillColor=#dae8fc;strokeColor=#6c8ebf;" vertex="1" parent="1">
          <mxGeometry x="-241" y="-80" width="320" height="240" as="geometry" />
        </mxCell>
        <mxCell id="TfEODBBjjmPM_egU4F7i-2" value="" style="rounded=0;whiteSpace=wrap;html=1;fillColor=#ffe6cc;strokeColor=#d79b00;" vertex="1" parent="1">
          <mxGeometry x="-241" y="160" width="320" height="240" as="geometry" />
        </mxCell>
        <mxCell id="TfEODBBjjmPM_egU4F7i-3" value="" style="rounded=0;whiteSpace=wrap;html=1;fillColor=#d5e8d4;strokeColor=#82b366;" vertex="1" parent="1">
          <mxGeometry x="199" y="-80" width="320" height="240" as="geometry" />
        </mxCell>
        <mxCell id="TfEODBBjjmPM_egU4F7i-4" value="" style="rounded=0;whiteSpace=wrap;html=1;fillColor=#e1d5e7;strokeColor=#9673a6;" vertex="1" parent="1">
          <mxGeometry x="199" y="160" width="320" height="240" as="geometry" />
        </mxCell>
        <mxCell id="TfEODBBjjmPM_egU4F7i-5" value="News generation" style="text;html=1;align=left;verticalAlign=middle;whiteSpace=wrap;rounded=0;" vertex="1" parent="1">
          <mxGeometry x="-241" y="-80" width="100" height="20" as="geometry" />
        </mxCell>
        <mxCell id="TfEODBBjjmPM_egU4F7i-6" value="Contact system" style="text;html=1;align=left;verticalAlign=middle;whiteSpace=wrap;rounded=0;" vertex="1" parent="1">
          <mxGeometry x="-241" y="160" width="100" height="30" as="geometry" />
        </mxCell>
        <mxCell id="TfEODBBjjmPM_egU4F7i-7" value="News site" style="text;html=1;align=left;verticalAlign=middle;whiteSpace=wrap;rounded=0;" vertex="1" parent="1">
          <mxGeometry x="199" y="-80" width="100" height="30" as="geometry" />
        </mxCell>
        <mxCell id="TfEODBBjjmPM_egU4F7i-8" value="News dashboard" style="text;html=1;align=left;verticalAlign=middle;whiteSpace=wrap;rounded=0;" vertex="1" parent="1">
          <mxGeometry x="199" y="160" width="100" height="30" as="geometry" />
        </mxCell>
        <mxCell id="TfEODBBjjmPM_egU4F7i-9" value="" style="rounded=0;whiteSpace=wrap;html=1;fillColor=#fff2cc;strokeColor=#d6b656;" vertex="1" parent="1">
          <mxGeometry x="79" y="-80" width="120" height="480" as="geometry" />
        </mxCell>
        <mxCell id="TfEODBBjjmPM_egU4F7i-10" value="API / Database" style="text;html=1;align=left;verticalAlign=middle;whiteSpace=wrap;rounded=0;" vertex="1" parent="1">
          <mxGeometry x="79" y="-80" width="91" height="30" as="geometry" />
        </mxCell>
        <mxCell id="TfEODBBjjmPM_egU4F7i-11" value="" style="shape=cylinder3;whiteSpace=wrap;html=1;boundedLbl=1;backgroundOutline=1;size=15;" vertex="1" parent="1">
          <mxGeometry x="110" y="110" width="60" height="80" as="geometry" />
        </mxCell>
        <mxCell id="TfEODBBjjmPM_egU4F7i-12" value="" style="shape=mxgraph.signs.tech.rss;html=1;pointerEvents=1;fillColor=#000000;strokeColor=none;verticalLabelPosition=bottom;verticalAlign=top;align=center;" vertex="1" parent="1">
          <mxGeometry x="-230" y="-40" width="19.8" height="20" as="geometry" />
        </mxCell>
        <mxCell id="TfEODBBjjmPM_egU4F7i-13" value="" style="shape=image;html=1;verticalAlign=top;verticalLabelPosition=bottom;labelBackgroundColor=#ffffff;imageAspect=0;aspect=fixed;image=https://cdn0.iconfinder.com/data/icons/phosphor-duotone-vol-3/256/robot-duotone-128.png" vertex="1" parent="1">
          <mxGeometry x="-146" y="-50" width="40" height="40" as="geometry" />
        </mxCell>
        <mxCell id="TfEODBBjjmPM_egU4F7i-14" value="" style="shape=image;html=1;verticalAlign=top;verticalLabelPosition=bottom;labelBackgroundColor=#ffffff;imageAspect=0;aspect=fixed;image=https://cdn0.iconfinder.com/data/icons/phosphor-duotone-vol-3/256/robot-duotone-128.png" vertex="1" parent="1">
          <mxGeometry x="-146" y="10" width="40" height="40" as="geometry" />
        </mxCell>
        <mxCell id="TfEODBBjjmPM_egU4F7i-15" value="" style="shape=image;html=1;verticalAlign=top;verticalLabelPosition=bottom;labelBackgroundColor=#ffffff;imageAspect=0;aspect=fixed;image=https://cdn0.iconfinder.com/data/icons/phosphor-duotone-vol-3/256/robot-duotone-128.png" vertex="1" parent="1">
          <mxGeometry x="-146" y="72" width="40" height="40" as="geometry" />
        </mxCell>
        <mxCell id="TfEODBBjjmPM_egU4F7i-16" value="" style="shape=image;html=1;verticalAlign=top;verticalLabelPosition=bottom;labelBackgroundColor=#ffffff;imageAspect=0;aspect=fixed;image=https://cdn0.iconfinder.com/data/icons/phosphor-duotone-vol-3/256/robot-duotone-128.png" vertex="1" parent="1">
          <mxGeometry x="-50" y="30" width="40" height="40" as="geometry" />
        </mxCell>
        <mxCell id="TfEODBBjjmPM_egU4F7i-17" value="" style="image;aspect=fixed;perimeter=ellipsePerimeter;html=1;align=center;shadow=0;dashed=0;spacingTop=3;image=img/lib/active_directory/internet_cloud.svg;" vertex="1" parent="1">
          <mxGeometry x="-43" y="-75" width="50" height="31.5" as="geometry" />
        </mxCell>
        <mxCell id="TfEODBBjjmPM_egU4F7i-18" value="" style="image;aspect=fixed;perimeter=ellipsePerimeter;html=1;align=center;shadow=0;dashed=0;spacingTop=3;image=img/lib/active_directory/internet_globe.svg;" vertex="1" parent="1">
          <mxGeometry x="-28" y="-63.5" width="20" height="20" as="geometry" />
        </mxCell>
        <mxCell id="TfEODBBjjmPM_egU4F7i-19" value="" style="endArrow=openThin;html=1;rounded=0;fontSize=12;startSize=8;endSize=8;curved=1;spacing=2;endFill=0;" edge="1" parent="1">
          <mxGeometry width="50" height="50" relative="1" as="geometry">
            <mxPoint x="-146" y="-33.480000000000004" as="sourcePoint" />
            <mxPoint x="-206" y="-33.480000000000004" as="targetPoint" />
          </mxGeometry>
        </mxCell>
        <mxCell id="TfEODBBjjmPM_egU4F7i-20" value="" style="endArrow=openThin;html=1;rounded=0;fontSize=12;startSize=8;endSize=8;curved=1;spacing=2;endFill=0;dashed=1;" edge="1" parent="1">
          <mxGeometry width="50" height="50" relative="1" as="geometry">
            <mxPoint x="-206" y="-26.48" as="sourcePoint" />
            <mxPoint x="-146" y="-26.05" as="targetPoint" />
          </mxGeometry>
        </mxCell>
        <mxCell id="TfEODBBjjmPM_egU4F7i-21" value="" style="endArrow=open;html=1;rounded=0;fontSize=12;startSize=8;endSize=8;curved=1;endFill=0;" edge="1" parent="1">
          <mxGeometry width="50" height="50" relative="1" as="geometry">
            <mxPoint x="-126" y="-11" as="sourcePoint" />
            <mxPoint x="-126" y="9" as="targetPoint" />
          </mxGeometry>
        </mxCell>
        <mxCell id="TfEODBBjjmPM_egU4F7i-22" value="" style="endArrow=open;html=1;rounded=0;fontSize=12;startSize=8;endSize=8;curved=1;endFill=0;" edge="1" parent="1">
          <mxGeometry width="50" height="50" relative="1" as="geometry">
            <mxPoint x="-126.4" y="50" as="sourcePoint" />
            <mxPoint x="-126.4" y="70" as="targetPoint" />
          </mxGeometry>
        </mxCell>
        <mxCell id="TfEODBBjjmPM_egU4F7i-26" value="" style="endArrow=openThin;html=1;rounded=0;fontSize=12;startSize=8;endSize=8;curved=1;spacing=2;endFill=0;dashed=1;" edge="1" parent="1">
          <mxGeometry width="50" height="50" relative="1" as="geometry">
            <mxPoint x="-31" y="-39" as="sourcePoint" />
            <mxPoint x="-106" y="21" as="targetPoint" />
          </mxGeometry>
        </mxCell>
        <mxCell id="TfEODBBjjmPM_egU4F7i-27" value="" style="endArrow=none;html=1;rounded=0;fontSize=12;startSize=8;endSize=8;curved=1;spacing=2;endFill=0;startArrow=openThin;startFill=0;" edge="1" parent="1">
          <mxGeometry width="50" height="50" relative="1" as="geometry">
            <mxPoint x="-35" y="-45" as="sourcePoint" />
            <mxPoint x="-110" y="15" as="targetPoint" />
          </mxGeometry>
        </mxCell>
        <mxCell id="TfEODBBjjmPM_egU4F7i-28" value="" style="endArrow=classic;html=1;rounded=0;fontSize=12;startSize=8;endSize=8;curved=0;" edge="1" parent="1">
          <mxGeometry width="50" height="50" relative="1" as="geometry">
            <mxPoint x="-146" y="20" as="sourcePoint" />
            <mxPoint x="-146" y="40" as="targetPoint" />
            <Array as="points">
              <mxPoint x="-166" y="20" />
              <mxPoint x="-166" y="40" />
            </Array>
          </mxGeometry>
        </mxCell>
        <mxCell id="TfEODBBjjmPM_egU4F7i-30" value="&lt;font style=&quot;font-size: 8px;&quot;&gt;1. Fetch information&lt;/font&gt;" style="text;html=1;align=center;verticalAlign=middle;whiteSpace=wrap;rounded=0;rotation=321;" vertex="1" parent="1">
          <mxGeometry x="-120" y="-27" width="86" height="10" as="geometry" />
        </mxCell>
        <mxCell id="TfEODBBjjmPM_egU4F7i-31" value="&lt;span style=&quot;font-size: 8px;&quot;&gt;2. Generate news&lt;/span&gt;" style="text;html=1;align=center;verticalAlign=middle;whiteSpace=wrap;rounded=0;rotation=0;" vertex="1" parent="1">
          <mxGeometry x="-236" y="24" width="70" height="10" as="geometry" />
        </mxCell>
        <mxCell id="TfEODBBjjmPM_egU4F7i-32" value="&lt;span style=&quot;font-size: 8px;&quot;&gt;1. Fetch news&lt;/span&gt;" style="text;html=1;align=center;verticalAlign=middle;whiteSpace=wrap;rounded=0;rotation=0;" vertex="1" parent="1">
          <mxGeometry x="-204" y="-47" width="60" height="10" as="geometry" />
        </mxCell>
        <mxCell id="TfEODBBjjmPM_egU4F7i-34" value="" style="endArrow=classic;html=1;rounded=0;fontSize=12;startSize=8;endSize=8;curved=0;" edge="1" parent="1">
          <mxGeometry width="50" height="50" relative="1" as="geometry">
            <mxPoint x="-117" y="-43.5" as="sourcePoint" />
            <mxPoint x="-107" y="-33.5" as="targetPoint" />
            <Array as="points">
              <mxPoint x="-97" y="-63.5" />
              <mxPoint x="-87" y="-53.5" />
            </Array>
          </mxGeometry>
        </mxCell>
        <mxCell id="TfEODBBjjmPM_egU4F7i-35" value="&lt;span&gt;2. Process news and get ideas&lt;/span&gt;" style="text;html=1;align=left;verticalAlign=middle;whiteSpace=wrap;rounded=0;rotation=0;fontSize=8;" vertex="1" parent="1">
          <mxGeometry x="-143" y="-79.5" width="61" height="18.5" as="geometry" />
        </mxCell>
        <mxCell id="TfEODBBjjmPM_egU4F7i-36" value="&lt;font&gt;1. Validate the generated news&lt;/font&gt;" style="text;html=1;align=left;verticalAlign=middle;whiteSpace=wrap;rounded=0;rotation=0;fontSize=8;" vertex="1" parent="1">
          <mxGeometry x="-233" y="70" width="70" height="28" as="geometry" />
        </mxCell>
        <mxCell id="TfEODBBjjmPM_egU4F7i-37" value="&lt;font&gt;2. Determ if interviews are needed&lt;/font&gt;" style="text;html=1;align=left;verticalAlign=middle;whiteSpace=wrap;rounded=0;rotation=0;fontSize=8;" vertex="1" parent="1">
          <mxGeometry x="-233" y="98" width="70" height="28" as="geometry" />
        </mxCell>
        <mxCell id="TfEODBBjjmPM_egU4F7i-39" value="" style="endArrow=classic;html=1;rounded=0;fontSize=12;startSize=8;endSize=8;curved=0;" edge="1" parent="1">
          <mxGeometry width="50" height="50" relative="1" as="geometry">
            <mxPoint x="-146" y="82" as="sourcePoint" />
            <mxPoint x="-146" y="102" as="targetPoint" />
            <Array as="points">
              <mxPoint x="-166" y="82" />
              <mxPoint x="-166" y="102" />
            </Array>
          </mxGeometry>
        </mxCell>
        <mxCell id="TfEODBBjjmPM_egU4F7i-40" value="" style="endArrow=none;html=1;rounded=0;fontSize=12;startSize=8;endSize=8;curved=1;spacing=2;endFill=0;startArrow=openThin;startFill=0;" edge="1" parent="1">
          <mxGeometry width="50" height="50" relative="1" as="geometry">
            <mxPoint x="-48" y="55" as="sourcePoint" />
            <mxPoint x="-108" y="94" as="targetPoint" />
          </mxGeometry>
        </mxCell>
        <mxCell id="TfEODBBjjmPM_egU4F7i-42" value="" style="endArrow=openThin;html=1;rounded=0;fontSize=12;startSize=8;endSize=8;curved=1;spacing=2;endFill=0;startArrow=none;startFill=0;dashed=1;" edge="1" parent="1">
          <mxGeometry width="50" height="50" relative="1" as="geometry">
            <mxPoint x="-48" y="61.5" as="sourcePoint" />
            <mxPoint x="-108" y="100.5" as="targetPoint" />
          </mxGeometry>
        </mxCell>
        <mxCell id="TfEODBBjjmPM_egU4F7i-43" value="&lt;font&gt;1. Fix the news&lt;/font&gt;" style="text;html=1;align=left;verticalAlign=middle;whiteSpace=wrap;rounded=0;rotation=0;fontSize=8;" vertex="1" parent="1">
          <mxGeometry x="-10" y="34" width="70" height="28" as="geometry" />
        </mxCell>
        <mxCell id="TfEODBBjjmPM_egU4F7i-44" value="" style="shape=image;html=1;verticalAlign=top;verticalLabelPosition=bottom;labelBackgroundColor=#ffffff;imageAspect=0;aspect=fixed;image=https://cdn0.iconfinder.com/data/icons/phosphor-duotone-vol-3/256/robot-duotone-128.png" vertex="1" parent="1">
          <mxGeometry x="-50" y="80" width="40" height="40" as="geometry" />
        </mxCell>
        <mxCell id="TfEODBBjjmPM_egU4F7i-45" value="1. Generate interview questions&lt;div&gt;2. Call the contact system&lt;/div&gt;" style="text;html=1;align=left;verticalAlign=middle;whiteSpace=wrap;rounded=0;rotation=0;fontSize=8;" vertex="1" parent="1">
          <mxGeometry x="-10" y="72" width="80" height="38" as="geometry" />
        </mxCell>
        <mxCell id="TfEODBBjjmPM_egU4F7i-47" value="" style="endArrow=diamond;html=1;rounded=0;fontSize=12;startSize=8;endSize=8;curved=1;endFill=1;" edge="1" parent="1">
          <mxGeometry width="50" height="50" relative="1" as="geometry">
            <mxPoint x="-126.24000000000001" y="110" as="sourcePoint" />
            <mxPoint x="-126.24000000000001" y="134" as="targetPoint" />
          </mxGeometry>
        </mxCell>
        <mxCell id="TfEODBBjjmPM_egU4F7i-49" value="" style="endArrow=openThin;html=1;rounded=0;fontSize=12;startSize=8;endSize=8;curved=0;endFill=0;entryX=0;entryY=0.5;entryDx=0;entryDy=0;entryPerimeter=0;" edge="1" parent="1" target="TfEODBBjjmPM_egU4F7i-11">
          <mxGeometry width="50" height="50" relative="1" as="geometry">
            <mxPoint x="-126" y="137" as="sourcePoint" />
            <mxPoint x="-66" y="147" as="targetPoint" />
            <Array as="points">
              <mxPoint x="-126" y="147" />
            </Array>
          </mxGeometry>
        </mxCell>
        <mxCell id="TfEODBBjjmPM_egU4F7i-50" value="" style="endArrow=openThin;html=1;rounded=0;fontSize=12;startSize=8;endSize=8;curved=1;endFill=0;" edge="1" parent="1">
          <mxGeometry width="50" height="50" relative="1" as="geometry">
            <mxPoint x="-120" y="128" as="sourcePoint" />
            <mxPoint x="-50" y="108" as="targetPoint" />
          </mxGeometry>
        </mxCell>
        <mxCell id="TfEODBBjjmPM_egU4F7i-51" value="" style="endArrow=openThin;html=1;rounded=0;fontSize=12;startSize=8;endSize=8;curved=1;endFill=0;entryX=0;entryY=0;entryDx=0;entryDy=27.5;entryPerimeter=0;" edge="1" parent="1" target="TfEODBBjjmPM_egU4F7i-11">
          <mxGeometry width="50" height="50" relative="1" as="geometry">
            <mxPoint x="-10" y="112" as="sourcePoint" />
            <mxPoint x="60" y="92" as="targetPoint" />
          </mxGeometry>
        </mxCell>
        <mxCell id="TfEODBBjjmPM_egU4F7i-52" value="&lt;font style=&quot;font-size: 7px;&quot;&gt;&lt;font style=&quot;&quot;&gt;Interview&lt;/font&gt;?&lt;/font&gt;" style="text;html=1;align=center;verticalAlign=middle;whiteSpace=wrap;rounded=0;" vertex="1" parent="1">
          <mxGeometry x="-171" y="120" width="40" height="15" as="geometry" />
        </mxCell>
        <mxCell id="TfEODBBjjmPM_egU4F7i-53" value="" style="endArrow=none;html=1;rounded=0;fontSize=12;startSize=8;endSize=8;curved=1;endFill=0;entryX=0;entryY=0;entryDx=0;entryDy=27.5;entryPerimeter=0;dashed=1;startFill=0;startArrow=openThin;" edge="1" parent="1">
          <mxGeometry width="50" height="50" relative="1" as="geometry">
            <mxPoint x="-14" y="116" as="sourcePoint" />
            <mxPoint x="106" y="142" as="targetPoint" />
          </mxGeometry>
        </mxCell>
        <mxCell id="TfEODBBjjmPM_egU4F7i-54" value="" style="endArrow=openThin;html=1;rounded=0;fontSize=12;startSize=8;endSize=8;curved=1;endFill=0;" edge="1" parent="1">
          <mxGeometry width="50" height="50" relative="1" as="geometry">
            <mxPoint x="-28.480000000000018" y="118" as="sourcePoint" />
            <mxPoint x="-28.480000000000018" y="208" as="targetPoint" />
          </mxGeometry>
        </mxCell>
        <mxCell id="TfEODBBjjmPM_egU4F7i-55" value="" style="shape=image;html=1;verticalAlign=top;verticalLabelPosition=bottom;labelBackgroundColor=#ffffff;imageAspect=0;aspect=fixed;image=https://cdn0.iconfinder.com/data/icons/phosphor-duotone-vol-3/256/robot-duotone-128.png" vertex="1" parent="1">
          <mxGeometry x="-49" y="210" width="40" height="40" as="geometry" />
        </mxCell>
        <mxCell id="TfEODBBjjmPM_egU4F7i-56" value="Updated 19.5.2025" style="text;html=1;align=left;verticalAlign=bottom;whiteSpace=wrap;rounded=0;" vertex="1" parent="1">
          <mxGeometry x="-241" y="-110" width="111" height="30" as="geometry" />
        </mxCell>
        <mxCell id="TfEODBBjjmPM_egU4F7i-57" value="DB" style="text;html=1;align=center;verticalAlign=middle;whiteSpace=wrap;rounded=0;" vertex="1" parent="1">
          <mxGeometry x="109" y="145" width="60" height="30" as="geometry" />
        </mxCell>
      </root>
    </mxGraphModel>
  </diagram>
</mxfile>
